<?xml version="1.0" encoding="UTF-8"?>
<svg version="1.1" xmlns="http://www.w3.org/2000/svg" width="1932" height="834">
<path d="M0 0 C637.56 0 1275.12 0 1932 0 C1932 275.22 1932 550.44 1932 834 C1294.44 834 656.88 834 0 834 C0 558.78 0 283.56 0 0 Z " fill="#FEFEFE" transform="translate(0,0)"/>
<path d="M0 0 C16.41369975 9.21907994 21.69832033 29.54449375 27.00341797 46.29296875 C28.41094109 50.63355779 29.95993113 54.92240573 31.49609375 59.21875 C33.82007494 65.77621752 35.91905731 72.35199919 37.81689453 79.04394531 C39.7956727 85.92127057 42.08476633 92.68851021 44.37109375 99.46875 C47.11356009 107.60602101 49.77172514 115.74016218 52.11791992 124.00048828 C53.87176259 130.12704066 55.9008357 136.15335378 57.99291992 142.17211914 C59.03870448 145.22407454 59.87109375 147.71803823 59.87109375 150.96875 C60.53109375 150.96875 61.19109375 150.96875 61.87109375 150.96875 C61.97832764 149.82615723 62.08556152 148.68356445 62.19604492 147.50634766 C62.77783276 142.88665183 64.1095666 138.7379927 65.671875 134.3671875 C65.94952194 133.5682608 66.22716888 132.76933411 66.51322937 131.94619751 C67.39591086 129.40937489 68.28896894 126.87638275 69.18359375 124.34375 C70.35144449 121.01999084 71.5142654 117.69452732 72.671875 114.3671875 C72.95497528 113.55394012 73.23807556 112.74069275 73.52975464 111.90280151 C75.51655451 106.13879839 77.23320803 100.33140051 78.8581543 94.45458984 C80.85471632 87.58379868 83.26841831 80.84905456 85.62109375 74.09375 C86.69592657 70.99415101 87.76835533 67.8937253 88.83984375 64.79296875 C89.10275208 64.03297073 89.3656604 63.27297272 89.63653564 62.48994446 C91.54114126 56.96835988 93.36595018 51.4238164 95.16064453 45.86547852 C107.2166074 8.71999659 107.2166074 8.71999659 123.74609375 -0.65625 C133.72826444 -5.69098915 146.11634198 -5.39410165 156.80859375 -2.59375 C165.26779355 0.40243716 172.50399562 6.68383902 176.77319336 14.63061523 C182.53498592 26.90117057 184.04089082 40.93199425 186.30859375 54.15625 C186.70781389 56.44941528 187.10722973 58.7425465 187.50683594 61.03564453 C189.9455056 75.12009171 192.20165401 89.2206755 194.18798828 103.37573242 C195.11981329 109.9818381 196.11527218 116.56448061 197.28125 123.1328125 C197.39900787 123.79783783 197.51676575 124.46286316 197.63809204 125.14804077 C198.19438721 128.27249559 198.76338578 131.39401454 199.34863281 134.51318359 C201.70012258 147.46917042 201.67807839 157.02770508 194.24609375 168.28125 C189.69503934 174.00191381 182.97293997 176.84919144 175.87109375 177.96875 C166.79686402 178.84418589 158.0149638 176.78352794 150.87109375 170.96875 C138.80443848 159.19640339 135.34283675 135.36625127 134.7734375 119.1953125 C134.79083984 117.90753906 134.79083984 117.90753906 134.80859375 116.59375 C134.81761719 115.71976562 134.82664062 114.84578125 134.8359375 113.9453125 C134.85333984 112.96691406 134.85333984 112.96691406 134.87109375 111.96875 C134.21109375 111.96875 133.55109375 111.96875 132.87109375 111.96875 C132.75483643 113.12866455 132.6385791 114.2885791 132.51879883 115.48364258 C131.98493119 119.72830685 130.87110468 123.68383125 129.5078125 127.73046875 C129.27455765 128.44298294 129.0413028 129.15549713 128.80097961 129.88960266 C128.0603481 132.1474698 127.30987946 134.40190832 126.55859375 136.65625 C125.82289513 138.8851623 125.08928163 141.11475254 124.35597229 143.3444519 C123.87380642 144.81031021 123.39084506 146.27590709 122.90708923 147.74124146 C121.15818679 153.05082435 119.49834136 158.3838645 117.86987305 163.73168945 C116.76723578 167.30535543 115.62426885 170.8650581 114.46875 174.421875 C114.26166916 175.0597847 114.05458832 175.6976944 113.8412323 176.35493469 C112.99616836 178.95575738 112.14996206 181.55620035 111.30102539 184.15576172 C108.89940771 191.51576762 106.5799038 198.88768592 104.42578125 206.32421875 C102.03917987 214.53612928 99.43918067 222.66565701 96.6965332 230.76538086 C96.18321155 232.2899051 95.67648439 233.81666401 95.17602539 235.34545898 C91.55216394 246.41128325 87.92984175 256.19843884 77.87109375 262.96875 C69.03620226 267.16616971 57.69848649 267.81104232 48.38671875 264.8671875 C36.52205434 259.34805256 32.28452984 251.03467842 27.81518555 239.16430664 C26.8209363 236.31749042 25.86772439 233.46084362 24.93359375 230.59375 C24.59078369 229.55500732 24.24797363 228.51626465 23.89477539 227.44604492 C21.43549174 219.912231 19.21030726 212.32894276 17.09008789 204.69384766 C15.36903303 198.55012937 13.42859941 192.50749553 11.37109375 186.46875 C9.07422916 179.72186578 6.96265085 172.96174083 5.05859375 166.09375 C2.14528235 155.59201891 -1.21321778 145.24248244 -4.61450195 134.89111328 C-6.99256939 127.63308392 -9.21620415 120.36453144 -11.12890625 112.96875 C-13.07470218 119.10915383 -14.08289474 125.28548325 -15.08203125 131.640625 C-15.45734722 133.93766134 -15.8336815 136.23453149 -16.2109375 138.53125 C-16.79741144 142.12162679 -17.37792748 145.7125015 -17.94091797 149.30664062 C-18.49007252 152.79628999 -19.06520934 156.28087328 -19.64453125 159.765625 C-19.80415344 160.824328 -19.96377563 161.88303101 -20.12823486 162.97381592 C-21.75663689 172.53734173 -25.35606837 181.75947904 -33.2734375 187.82421875 C-41.12613524 192.66809336 -50.50444658 194.03893735 -59.546875 192.578125 C-67.27272918 190.70954631 -72.81659898 186.42480977 -77.54296875 180.06640625 C-83.73278378 169.89106283 -81.21415464 156.44489077 -79.9921875 145.1875 C-79.86177567 143.98411987 -79.73136383 142.78073975 -79.59700012 141.54089355 C-78.00329933 127.74291226 -75.388858 114.14461325 -72.71798706 100.52427673 C-71.620733 94.9078852 -70.55035215 89.28625321 -69.47688675 83.66527557 C-69.21196691 82.27866416 -68.94662712 80.8921329 -68.68085861 79.5056839 C-66.20206205 66.56780053 -63.96188314 53.59939632 -62.00463867 40.57226562 C-59.676886 25.6670009 -55.64266562 10.5380954 -43.12890625 0.96875 C-39.88164194 -0.69824325 -36.60679436 -1.93784646 -33.12890625 -3.03125 C-22.89748476 -6.44172383 -9.5221513 -4.61256503 0 0 Z " fill="#004C84" transform="translate(226.12890625,325.03125)"/>
<path d="M0 0 C20.55843693 17.64841396 33.24837724 42.52757173 35.83300781 69.5300293 C38.1636955 103.0456375 35.18770643 137.86327939 12.609375 164.60546875 C-5.00207749 184.62529885 -27.15239966 195.37498839 -53.453125 198.35546875 C-55.28494907 198.46716534 -57.11883264 198.5469275 -58.953125 198.60546875 C-59.89478516 198.64414062 -59.89478516 198.64414062 -60.85546875 198.68359375 C-88.20207063 199.70208916 -114.49210813 192.98881996 -135.08984375 174.31640625 C-147.10603757 162.93954607 -155.04544721 149.965431 -160.953125 134.60546875 C-161.2013501 134.00452393 -161.4495752 133.4035791 -161.70532227 132.78442383 C-170.74720183 110.23810555 -171.26555923 78.9423468 -164.953125 55.60546875 C-164.68628906 54.46335937 -164.41945313 53.32125 -164.14453125 52.14453125 C-160.40412929 37.3491635 -153.75685222 24.2621341 -143.953125 12.60546875 C-143.24414062 11.7340625 -142.53515625 10.86265625 -141.8046875 9.96484375 C-108.06436271 -29.74398614 -39.59369661 -32.10441273 0 0 Z " fill="#00599B" transform="translate(1044.953125,235.39453125)"/>
<path d="M0 0 C20.56552622 17.63191439 33.45460657 42.77332946 36.04052734 69.73266602 C38.39153721 102.89615364 35.16702131 137.16957727 13.25 163.6875 C12.57453125 164.52539062 11.8990625 165.36328125 11.203125 166.2265625 C1.20484042 178.01286147 -10.78006673 185.48578802 -24.75 191.6875 C-25.68328125 192.10902344 -26.6165625 192.53054688 -27.578125 192.96484375 C-51.27976781 202.59818017 -82.74150195 201.44774603 -106.35546875 192.18359375 C-131.12499529 181.26675984 -149.32888639 163.39653403 -159.4765625 138.02734375 C-159.89679688 136.92519531 -160.31703125 135.82304687 -160.75 134.6875 C-161.12898438 133.76066406 -161.50796875 132.83382812 -161.8984375 131.87890625 C-170.52953749 109.00324649 -171.02158603 79.11771102 -164.75 55.6875 C-164.34974609 53.97240234 -164.34974609 53.97240234 -163.94140625 52.22265625 C-160.19714494 37.42866377 -153.5537779 24.34422561 -143.75 12.6875 C-143.04101562 11.81609375 -142.33203125 10.9446875 -141.6015625 10.046875 C-107.33822917 -30.2774812 -40.28550806 -31.64079174 0 0 Z " fill="#01467A" transform="translate(1475.75,235.3125)"/>
<path d="M0 0 C4.92264269 3.58184507 7.24404159 8.18074371 9.72265625 13.5703125 C10.24691696 14.70091347 10.24691696 14.70091347 10.7817688 15.85435486 C14.11427161 23.18374124 16.73865826 30.67519215 19.1953125 38.3359375 C19.68119797 39.82164855 20.16796808 41.30707051 20.65551758 42.79223633 C22.39622639 48.11318163 24.10924762 53.44289785 25.8203125 58.7734375 C26.36827484 60.47941101 26.36827484 60.47941101 26.92730713 62.21984863 C27.93102858 65.34518701 28.93440882 68.4706346 29.93751526 71.59617043 C30.35071352 72.88356247 30.76397214 74.17093514 31.17729187 75.45828819 C33.4389431 82.50257825 35.69594362 89.54827568 37.94091797 96.59790039 C38.69628294 98.9624043 39.45165376 101.32690634 40.20703125 103.69140625 C40.55752029 104.79698883 40.90800934 105.90257141 41.26911926 107.04165649 C41.75211739 108.55087173 41.75211739 108.55087173 42.24487305 110.09057617 C42.52622604 110.97460617 42.80757904 111.85863617 43.09745789 112.76945496 C43.64922241 114.74409045 43.64922241 114.74409045 44.8203125 115.7734375 C46.31859089 111.47419801 47.8116328 107.17318486 49.30029297 102.87060547 C49.80511743 101.41375314 50.31125607 99.95735538 50.81884766 98.50146484 C53.7166509 90.1867779 56.41044649 81.87720471 58.77441406 73.39160156 C60.83412536 66.26626976 63.21377006 59.24260088 65.5703125 52.2109375 C65.96515839 51.03162659 65.96515839 51.03162659 66.36798096 49.82849121 C69.54447464 40.35936136 72.73271417 30.89246298 76.1953125 21.5234375 C76.47987305 20.7286499 76.76443359 19.9338623 77.05761719 19.11499023 C80.72702457 9.46326651 87.9001148 0.16445815 97.5078125 -4.1640625 C107.03951142 -7.15439942 117.05351368 -5.70142931 125.8203125 -1.2265625 C133.20591872 3.07103496 137.21164684 10.69394679 139.35177612 18.7819519 C139.84905003 21.03609334 140.29719793 23.29443517 140.7265625 25.5625 C140.89403488 26.42405701 141.06150726 27.28561401 141.23405457 28.17327881 C143.22036616 38.578947 144.89241218 49.03847579 146.56765747 59.49780273 C147.54358612 65.58598702 148.53307193 71.67196235 149.5234375 77.7578125 C149.7201857 78.96727539 149.9169339 80.17673828 150.11964417 81.42285156 C151.80023539 91.71971973 153.56669491 101.99971953 155.3828125 112.2734375 C155.65880981 113.84112499 155.93468872 115.40883333 156.21044922 116.9765625 C157.43518763 123.93370103 158.66360928 130.89017486 159.89746094 137.84570312 C160.84422912 143.18950708 161.77963114 148.53521621 162.70895386 153.88208008 C163.06974172 155.9470264 163.43415781 158.01134269 163.80252075 160.07495117 C168.92669793 188.80269603 168.92669793 188.80269603 163.37890625 198.578125 C159.81314705 203.60057279 155.68249693 206.84854112 149.8203125 208.7734375 C141.6873014 209.58913773 134.32964904 208.97611407 127.6953125 203.8984375 C118.75886516 195.4286905 117.72613569 183.0823423 116.19471741 171.49749756 C115.80163446 168.6375416 115.36796191 165.78621532 114.92480469 162.93359375 C113.86194262 156.05770417 112.82260238 149.17838025 111.78745842 142.2982769 C111.12501823 137.89765548 110.46045135 133.49735453 109.79634762 129.09698391 C109.21607096 125.25123943 108.63650553 121.40539009 108.05834961 117.55932617 C107.49362263 113.80288225 106.92701834 110.04672579 106.35913277 106.29075813 C106.14435346 104.86792314 105.93025843 103.44498467 105.71687126 102.02194023 C105.41972496 100.04096912 105.1199554 98.06039204 104.82006836 96.07983398 C104.65067245 94.95544418 104.48127655 93.83105438 104.30674744 92.67259216 C103.91307444 90.32629913 103.44509095 88.06661605 102.8203125 85.7734375 C100.01130378 94.68693013 97.20244788 103.6004709 94.39376354 112.51406574 C92.83561974 117.45894761 91.27741092 122.40380896 89.71899223 127.3486042 C89.21406711 128.95095352 88.70927247 130.55334395 88.20460701 132.15577507 C86.93689934 136.18071386 85.66722831 140.20501233 84.39352417 144.22805786 C82.07802216 151.54942809 79.77895257 158.87415398 77.5585928 166.22502995 C76.58906468 169.43226786 75.60919022 172.63630585 74.62877846 175.84023094 C74.17257549 177.34213463 73.72161763 178.84564362 73.2764492 180.35085487 C70.11935269 191.02127188 67.0505168 201.27157763 56.7421875 206.91015625 C53.99431772 208.14446361 51.84683073 208.59883068 48.8203125 208.7734375 C47.91023437 208.8353125 47.00015625 208.8971875 46.0625 208.9609375 C38.3535603 209.27006791 33.10065422 208.42342011 27.17578125 203.37109375 C18.29496822 194.17551773 15.65043819 179.22744523 12.07421875 167.296875 C11.53584767 165.5185006 10.99684881 163.74031613 10.45726013 161.96231079 C9.04541544 157.30532479 7.64055251 152.64626511 6.2376709 147.98657227 C3.99870539 140.553194 1.74997841 133.12276933 -0.50056648 125.69289017 C-1.27511342 123.13174904 -2.04607854 120.56955234 -2.81651306 118.00717163 C-6.07788256 107.19501366 -9.55186611 96.46812941 -13.1796875 85.7734375 C-13.3587262 86.93029556 -13.53776489 88.08715363 -13.722229 89.27906799 C-15.41955404 100.23925859 -17.12551682 111.19807521 -18.83971024 122.1556406 C-19.72049116 127.7875959 -20.59833694 133.4199746 -21.46923828 139.0534668 C-22.31152205 144.50110203 -23.16182455 149.94743288 -24.01744843 155.3929882 C-24.34075149 157.45950734 -24.66127625 159.52646332 -24.97882843 161.59387398 C-30.21287188 195.6311273 -30.21287188 195.6311273 -38.3046875 203.9609375 C-44.97900265 208.16865792 -53.35150287 210.24198066 -61.1796875 208.7734375 C-68.26546633 205.94947017 -73.12149567 201.80016662 -76.1796875 194.7734375 C-79.81325074 182.97220574 -76.22249766 169.09912908 -74.1796875 157.2734375 C-73.86169914 155.38336216 -73.54458069 153.49314028 -73.22827148 151.6027832 C-72.22882082 145.6567564 -71.20544552 139.71497265 -70.1796875 133.7734375 C-69.85029445 131.85728124 -69.52102846 129.94110313 -69.19189453 128.02490234 C-67.3881231 117.53633884 -65.55986968 107.05219355 -63.71882629 96.57011414 C-62.488431 89.55697512 -61.27578603 82.54089979 -60.0703125 75.5234375 C-58.27274584 65.06346498 -56.44968301 54.60821948 -54.60028076 44.1572876 C-54.21100402 41.95093416 -53.82581408 39.74391184 -53.44189453 37.53662109 C-48.16845304 7.51946367 -48.16845304 7.51946367 -37.296875 -0.890625 C-25.65472021 -8.23678171 -11.58563368 -6.51951429 0 0 Z " fill="#0060A8" transform="translate(692.1796875,222.2265625)"/>
<path d="M0 0 C8.65738629 5.3424763 14.43424687 13.40881764 20.58007812 21.3359375 C22.02180227 23.19407747 23.47323603 25.04401613 24.9296875 26.890625 C27.20614486 29.77715837 29.47567152 32.66902714 31.74267578 35.56298828 C34.02609553 38.47654327 36.31407053 41.38651693 38.6015625 44.296875 C39.51825073 45.46352473 40.4349174 46.63019139 41.3515625 47.796875 C42.0321875 48.663125 42.0321875 48.663125 42.7265625 49.546875 C46.8515625 54.796875 46.8515625 54.796875 48.22631836 56.54663086 C49.14371259 57.7141791 50.06119317 58.88165949 50.97875977 60.04907227 C53.26000495 62.9517029 55.53977464 65.85546774 57.81640625 68.76171875 C62.01195794 74.11432611 66.22059642 79.4543271 70.48364258 84.75341797 C75.88747295 91.47131143 81.18129926 98.26259562 86.38623047 105.13598633 C89.30715754 108.98544188 92.27902377 112.78711245 95.30175781 116.55737305 C96.01535461 117.44788864 96.72895142 118.33840424 97.46417236 119.25590515 C98.00451111 119.9294252 98.54484985 120.60294525 99.1015625 121.296875 C99.10520813 120.00363312 99.10885376 118.71039124 99.11260986 117.37796021 C99.14961528 105.16652504 99.20744893 92.95534076 99.28546524 80.74409676 C99.32490676 74.46675728 99.35711176 68.18955739 99.37255859 61.91210938 C99.38774675 55.84947395 99.4222315 49.78722236 99.46987152 43.72475815 C99.4846629 41.41645527 99.49260222 39.10809758 99.49344635 36.79974747 C99.49582442 33.55635314 99.52297319 30.31401237 99.55566406 27.07080078 C99.54811852 25.6519886 99.54811852 25.6519886 99.54042053 24.20451355 C99.65117434 17.06203538 100.96402331 9.95080838 105.74713516 4.38046455 C111.00558997 -0.60485356 116.92050806 -2.81419651 124.1015625 -3.078125 C131.26916363 -2.81469096 137.23937413 -0.62054346 142.45587921 4.40494537 C149.49822662 12.50105098 148.67297886 23.28048331 148.61914062 33.33789062 C148.62456902 35.04726251 148.6316957 36.75662972 148.64038086 38.46598816 C148.65853185 43.08380667 148.65158086 47.70126553 148.63886452 52.31908989 C148.62869404 57.16573894 148.63814139 62.01235845 148.64440918 66.85900879 C148.65167383 74.99606825 148.64212896 83.13298219 148.62304688 91.27001953 C148.60128042 100.65980329 148.60833263 110.04923956 148.6303525 119.43901491 C148.64854023 127.52001548 148.65104835 135.60091181 148.64059782 143.68192625 C148.63438141 148.49998891 148.63347605 153.31788855 148.64674377 158.13594055 C148.65835088 162.66695121 148.65018834 167.19751652 148.62716675 171.72847939 C148.62190551 173.38521398 148.62334884 175.04198646 148.63221741 176.69870567 C148.68359949 187.27757277 147.73177986 195.53123567 141.9765625 204.671875 C137.06589526 209.1555277 131.25959216 211.44272449 124.6015625 211.796875 C115.18439834 211.2341622 108.98390939 206.99161842 102.65625 200.25 C98.9566461 195.97339366 95.46463362 191.56004221 92.0234375 187.07421875 C88.94138144 183.06186951 85.74492784 179.14801661 82.5390625 175.234375 C77.77320523 169.39834647 73.12707798 163.48835656 68.5546875 157.5 C61.70168601 148.52819612 54.64651185 139.71266649 47.5847168 130.9050293 C42.84248078 124.98547398 38.15527521 119.02368909 33.47802734 113.05273438 C31.57909276 110.63039711 29.67608443 108.21127392 27.77294922 105.79223633 C26.39002478 104.03329517 25.00935258 102.27260503 23.62890625 100.51171875 C22.04744833 98.49564347 20.45589175 96.48950584 18.85546875 94.48828125 C18.21480469 93.68261719 17.57414062 92.87695312 16.9140625 92.046875 C16.36363281 91.36109375 15.81320312 90.6753125 15.24609375 89.96875 C14.1015625 88.296875 14.1015625 88.296875 14.1015625 86.296875 C13.4415625 86.296875 12.7815625 86.296875 12.1015625 86.296875 C12.10822433 87.59011688 12.11488617 88.88335876 12.12174988 90.21578979 C12.18266997 102.42704871 12.22758749 114.63827662 12.25699902 126.84965324 C12.27262827 133.127047 12.29381668 139.40431769 12.32788086 145.68164062 C12.36057173 151.74410328 12.37843611 157.80644783 12.38619423 163.86899185 C12.39172027 166.17734764 12.40251116 168.48569726 12.41875267 170.79400253 C12.44065593 174.03712482 12.443524 177.27976439 12.44213867 180.52294922 C12.4529245 181.46882401 12.46371033 182.41469879 12.474823 183.38923645 C12.4381559 191.36668046 11.39775818 199.0304445 6.0390625 205.234375 C0.13676101 210.49188725 -7.62891758 211.9877395 -15.37890625 211.70703125 C-21.50990592 210.70896154 -27.0416622 207.9156185 -30.8984375 202.984375 C-34.71026229 197.42079249 -35.14859893 190.27657556 -35.15913391 183.75172424 C-35.16295946 183.03661727 -35.16678501 182.3215103 -35.17072648 181.58473343 C-35.18096404 179.21209236 -35.17708214 176.83969749 -35.1730957 174.46704102 C-35.17744728 172.7563454 -35.18263191 171.04565173 -35.18858337 169.33496094 C-35.20193592 164.70479066 -35.20255628 160.07470219 -35.20002007 155.44451642 C-35.19894793 151.57281528 -35.20383988 147.70113052 -35.2086255 143.8294329 C-35.21970748 134.6928353 -35.22016529 125.55627881 -35.21411133 116.41967773 C-35.20807035 107.00725464 -35.22038872 97.59498099 -35.2416814 88.18258339 C-35.25931661 80.08807124 -35.26529577 71.99360657 -35.26204365 63.89907593 C-35.2602339 59.07041255 -35.26283632 54.24185582 -35.27675819 49.41320992 C-35.28936338 44.87164453 -35.28736704 40.33031164 -35.27434731 35.78874969 C-35.27198793 34.12675077 -35.27469323 32.46473534 -35.28297043 30.80275536 C-35.3681456 12.36402297 -35.3681456 12.36402297 -30.3203125 4.9921875 C-21.55161064 -3.24383621 -10.99293896 -5.67126886 0 0 Z " fill="#014E87" transform="translate(1137.8984375,219.703125)"/>
<path d="M0 0 C23.05794625 17.68522091 31.59980745 65.97230583 40.9752655 91.88478088 C45.08761727 103.24141427 49.24926874 114.57966392 53.42236328 125.91409302 C63.93951668 154.48266516 63.93951668 154.48266516 68.44921875 166.91796875 C68.80137451 167.88138184 69.15353027 168.84479492 69.51635742 169.83740234 C69.82549072 170.69414551 70.13462402 171.55088867 70.453125 172.43359375 C70.71037354 173.14290039 70.96762207 173.85220703 71.23266602 174.58300781 C72.85622635 179.75852302 73.12914117 184.7281821 73.19921875 190.10546875 C73.22822266 190.84345703 73.25722656 191.58144531 73.28710938 192.34179688 C73.34795349 197.60715321 72.31967459 200.4700608 68.88671875 204.66796875 C63.0770911 210.34849356 57.90159302 211.73287617 49.94921875 212.04296875 C42.74365501 211.89885748 38.37977861 210.04507234 33.19921875 205.10546875 C25.61229979 194.78725897 23.32054123 181.68634744 19.88671875 169.66796875 C-5.85328125 169.33796875 -31.59328125 169.00796875 -58.11328125 168.66796875 C-59.10328125 172.62796875 -60.09328125 176.58796875 -61.11328125 180.66796875 C-68.49116792 204.4545979 -68.49116792 204.4545979 -77.11328125 209.66796875 C-85.84418534 212.57827011 -93.37461524 212.66533492 -101.87890625 208.94140625 C-106.38053511 206.3757926 -109.17053681 202.4403627 -111.11328125 197.66796875 C-112.82096285 182.79525346 -107.41852826 168.86017478 -102.32421875 155.14453125 C-101.86290364 153.88761664 -101.4021818 152.63048416 -100.94200134 151.37315369 C-99.71813115 148.03416028 -98.48630359 144.69815791 -97.25278091 141.36272049 C-95.95827416 137.85806545 -94.67128902 134.35065009 -93.38354492 130.84350586 C-91.29480858 125.1574521 -89.20193101 119.47294036 -87.10595703 113.78955078 C-84.399223 106.44927756 -81.70489079 99.10450489 -79.015625 91.7578125 C-75.70371619 82.71186218 -72.38160238 73.66975115 -69.04745483 64.63197327 C-67.17406684 59.5527315 -65.30919127 54.47051337 -63.45295715 49.38497925 C-46.6848099 3.49414234 -46.6848099 3.49414234 -30.11328125 -4.33203125 C-19.4841558 -7.16075012 -9.23760365 -5.82259306 0 0 Z " fill="#013963" transform="translate(1832.11328125,219.33203125)"/>
<path d="M0 0 C1.00204468 -0.00637985 2.00408936 -0.0127597 3.03649902 -0.01933289 C4.11564575 -0.02044571 5.19479248 -0.02155853 6.30664062 -0.02270508 C7.42671509 -0.02603348 8.54678955 -0.02936188 9.70080566 -0.03279114 C12.07462148 -0.03785502 14.44844441 -0.04019963 16.82226562 -0.04003906 C20.42134681 -0.04221125 24.02011425 -0.06033328 27.61914062 -0.0793457 C29.93163958 -0.08228274 32.24413999 -0.08426546 34.55664062 -0.08520508 C36.15106995 -0.09598335 36.15106995 -0.09598335 37.77770996 -0.10697937 C62.22367548 -0.03376418 84.79764463 8.87591509 102.15429688 26.11010742 C118.60599553 43.33819066 122.51582598 66.0157371 122.23632812 88.81713867 C121.69586997 106.85024743 114.17007955 123.85503092 101.96289062 137.14526367 C97.8909382 140.82706623 93.47290775 144.02163826 88.96289062 147.14526367 C88.02960938 147.83104492 87.09632813 148.51682617 86.13476562 149.22338867 C82.20295278 151.60571862 78.25987949 152.99336077 73.90039062 154.39526367 C72.71606445 154.79745117 72.71606445 154.79745117 71.5078125 155.20776367 C67.56166263 156.50440303 64.17280063 157.517972 59.96289062 157.14526367 C65.03046931 163.1082416 70.35697515 168.81979246 75.72314453 174.51269531 C78.67747918 177.65649544 81.5787709 180.83020002 84.40429688 184.09057617 C88.76191545 189.10725867 93.36469994 193.88658683 97.97265625 198.67260742 C98.61783203 199.35194336 99.26300781 200.0312793 99.92773438 200.73120117 C100.80353149 201.64458252 100.80353149 201.64458252 101.69702148 202.57641602 C102.96289062 204.14526367 102.96289062 204.14526367 102.96289062 206.14526367 C103.95289063 206.47526367 104.94289063 206.80526367 105.96289062 207.14526367 C108.51051463 209.61549151 110.70183794 212.41315835 112.96289062 215.14526367 C113.65382813 215.96124023 114.34476563 216.7772168 115.05664062 217.61791992 C122.07064018 226.0844455 125.69160315 231.70182467 125.27539062 242.96557617 C124.43673046 251.49894332 121.4187192 257.43341534 114.96289062 263.14526367 C105.03909352 270.16825855 95.9030427 271.24132065 83.96289062 270.14526367 C80.77986775 269.32368697 78.55507282 268.13827966 75.96289062 266.14526367 C75.15271484 265.59612305 75.15271484 265.59612305 74.32617188 265.03588867 C67.69614665 260.0285969 62.94803958 252.7091016 57.96289062 246.14526367 C56.31967523 243.99740917 54.67246377 241.852666 53.02539062 239.70776367 C52.62143066 239.18037598 52.2174707 238.65298828 51.80126953 238.10961914 C48.1006917 233.29117354 44.30782866 228.54918854 40.50317383 223.81274414 C37.04601604 219.50697593 33.61869693 215.17924952 30.21289062 210.83276367 C27.14806811 206.92172849 24.07312021 203.02040744 20.96289062 199.14526367 C20.33640625 198.36151367 19.70992188 197.57776367 19.06445312 196.77026367 C17.92864601 195.35156037 16.79183921 193.93364319 15.64941406 192.52026367 C4.66701847 178.91939781 -1.21724242 169.98345574 -1.47460938 152.14526367 C-1.54325195 150.2484082 -1.54325195 150.2484082 -1.61328125 148.31323242 C-1.72849134 138.58549316 0.22548886 130.67561239 6.67382812 123.14794922 C13.82950687 116.16140057 22.54571133 114.90950801 32.1262207 114.57104492 C37.87536978 114.30832051 42.06387568 113.07836489 46.96289062 110.14526367 C48.03539062 109.56776367 49.10789062 108.99026367 50.21289062 108.39526367 C55.92180738 103.72433178 59.58650006 96.83389121 60.33398438 89.50854492 C60.59031904 81.10634938 60.28919306 74.08095246 54.96289062 67.14526367 C49.06596734 60.89802811 43.67294287 57.42058756 34.92573547 57.06167603 C32.56015531 57.03338199 30.19581435 57.03376832 27.83007812 57.03979492 C26.03579532 57.02633185 24.24152368 57.01130743 22.44726562 56.99487305 C19.64966944 56.97214624 16.8533393 56.95769454 14.05566406 56.97021484 C1.8692187 57.01014563 -8.38734177 56.89366771 -18.01171875 48.40332031 C-23.24473776 43.01535436 -26.21762393 36.24622312 -26.53710938 28.77026367 C-26.23183205 21.00749745 -23.79372046 12.59070659 -18.03710938 7.14526367 C-12.01176995 2.61233734 -7.61823394 0.03304797 0 0 Z " fill="#8C5185" transform="translate(436.037109375,320.854736328125)"/>
<path d="M0 0 C6.26946643 4.71337584 8.69012937 11.62345956 11.5078125 18.7265625 C12.01447449 19.99911644 12.01447449 19.99911644 12.53137207 21.29737854 C18.14229749 35.5077204 23.42665956 49.84646038 28.77105713 64.1585083 C31.14532079 70.51524173 33.52356981 76.87048631 35.90158081 83.22581863 C36.47485998 84.75802633 37.04804208 86.29027035 37.62112427 87.82255173 C42.09239782 99.77682211 46.60206891 111.71580095 51.171875 123.6328125 C54.7901287 115.16456581 58.1215156 106.60543236 61.33403206 97.97746849 C62.17153233 95.7282668 63.01190231 93.48015392 63.85289001 91.23225403 C65.64921995 86.42920609 67.44194447 81.62481671 69.234375 76.8203125 C70.41046273 73.66849108 71.58687558 70.51679131 72.76367188 67.36523438 C73.0534812 66.58909349 73.34329052 65.81295261 73.64188194 65.01329231 C75.95775333 58.8148307 78.28633682 52.62119947 80.62030983 46.429533 C82.31853491 41.91946107 83.99689678 37.40261722 85.66000843 32.87948513 C86.71347488 30.02418877 87.78124764 27.17438615 88.85238457 24.32567787 C89.3456221 23.00457511 89.83285635 21.68121178 90.31337166 20.3554287 C93.55434054 11.42511411 97.04050438 4.42025272 104.796875 -1.3046875 C112.25070913 -4.63929751 120.57310292 -4.18387413 128.10546875 -1.328125 C134.41756036 1.60717658 137.09942201 5.67649323 140.2890625 11.64453125 C143.30645481 21.85827072 139.40535433 30.41683085 135.546875 39.8203125 C134.91640035 41.39382235 134.28755359 42.96798523 133.66015625 44.54272461 C132.26827006 48.02749614 130.8658627 51.50779267 129.45605469 54.98535156 C127.08167354 60.84615283 124.73832874 66.71910969 122.3984375 72.59375 C118.79300339 81.6401562 115.17380004 90.6809403 111.546875 99.71875 C107.11774322 110.75612518 102.7132465 121.80315946 98.31835938 132.85421181 C96.28107817 137.97524165 94.24084312 143.09509548 92.20056152 148.21493053 C90.52748197 152.41403607 88.85630171 156.61387698 87.18945312 160.81546021 C85.61079157 164.79461908 84.02710512 168.77174321 82.43988037 172.74749374 C81.85553393 174.21377406 81.2729825 175.68077131 80.69244385 177.14856339 C69.99693436 204.18033711 69.99693436 204.18033711 62.171875 208.6328125 C59.51538579 209.76417743 57.03301585 210.29133818 54.171875 210.6328125 C53.38683594 210.73851562 52.60179687 210.84421875 51.79296875 210.953125 C45.78528042 211.38560335 41.76359643 209.88846473 36.59375 206.921875 C30.03500895 200.72280684 26.74123987 191.81280153 23.484375 183.5703125 C22.80387085 181.87515503 22.80387085 181.87515503 22.10961914 180.14575195 C16.07369241 165.05949029 10.25829288 149.88377824 4.40116882 134.7275238 C-0.35099179 122.43094603 -5.13928712 110.14904204 -9.95306396 97.87646484 C-15.76526185 83.05666879 -21.5560017 68.22883719 -27.28088379 53.37506104 C-27.92743847 51.69768164 -28.57463469 50.02054937 -29.22253418 48.34368896 C-40.38940828 19.42875081 -40.38940828 19.42875081 -36.94921875 10.30078125 C-33.66027292 4.62382195 -28.96515978 0.23780704 -23.140625 -2.7421875 C-14.85787025 -4.30497142 -7.42950572 -4.32993486 0 0 Z " fill="#013F6E" transform="translate(1567.828125,220.3671875)"/>
<path d="M0 0 C12.69145922 9.734226 20.93777214 24.19532516 23.38574219 40.03125 C25.29414669 57.62068697 25.37790187 76.24315763 18.6875 92.8125 C18.29175781 93.79605469 17.89601563 94.77960938 17.48828125 95.79296875 C12.18319696 107.44300435 3.56846005 116.90751649 -8.3125 121.8125 C-9.35083984 122.26302734 -9.35083984 122.26302734 -10.41015625 122.72265625 C-21.52125608 126.82023166 -35.32311393 126.1513848 -46.34765625 122.203125 C-59.55132163 116.01010145 -67.7799612 106.05221713 -73.3125 92.8125 C-77.1844845 81.81310455 -78.49416105 72.43201334 -78.5 60.8125 C-78.51224609 59.56082031 -78.52449219 58.30914062 -78.53710938 57.01953125 C-78.56721635 37.65070903 -74.56017109 19.5811722 -61 5 C-44.66502255 -10.20465535 -18.69825925 -12.18219921 0 0 Z " fill="#FDFEFE" transform="translate(1006.3125,265.1875)"/>
<path d="M0 0 C11.76077433 9.40861947 19.27468826 23.59939842 21.57324219 38.46875 C23.48119687 56.05404103 23.57996807 74.69210804 16.875 91.25 C16.44058594 92.35730469 16.00617188 93.46460938 15.55859375 94.60546875 C10.17091766 106.71622782 1.06218044 116.01548512 -11.1875 121 C-22.41309573 125.22495069 -36.89003591 124.58206915 -48.08984375 120.640625 C-61.3501921 114.5650986 -69.59669634 104.46360441 -75.125 91.25 C-79.06169629 80.17960883 -80.30635458 70.38223695 -80.3125 58.6875 C-80.33086914 56.88829102 -80.33086914 56.88829102 -80.34960938 55.05273438 C-80.38070638 35.84514981 -76.24200128 17.87816372 -62.8125 3.4375 C-45.75367619 -12.44091412 -18.87745786 -13.38517243 0 0 Z " fill="#FDFEFE" transform="translate(1439.125,266.75)"/>
<path d="M0 0 C10.53030098 8.19808667 19.22911322 18.13724994 21.5 31.6875 C22.76079151 45.66516386 20.1416508 57.55088441 11.5 68.6875 C10.7575 69.71875 10.015 70.75 9.25 71.8125 C0.31623419 81.15234607 -11.99082831 87.37535522 -24.98046875 88.0234375 C-39.67364803 88.30656394 -50.75086564 86.00272706 -62.5 76.6875 C-63.386875 76.089375 -64.27375 75.49125 -65.1875 74.875 C-71.60083786 68.80832905 -78.97933631 58.43314702 -79.67700195 49.39428711 C-79.74385596 46.4710889 -79.78496857 43.54883833 -79.8125 40.625 C-79.84150391 39.62533203 -79.87050781 38.62566406 -79.90039062 37.59570312 C-80.01145685 24.44717115 -74.1960923 14.90730901 -65.40234375 5.42578125 C-47.76913396 -11.37537145 -20.24534924 -13.47629354 0 0 Z " fill="#004B83" transform="translate(315.5,225.3125)"/>
<path d="M0 0 C9.9018383 7.85624895 17.70547735 18.40247089 19.9375 31.125 C21.09362105 46.86926665 16.80618489 58.41492899 6.6875 70.375 C-2.15262095 79.85506236 -14.36511821 85.43741058 -27.2578125 86.3515625 C-44.57159831 86.77762882 -57.21118519 82.34300353 -69.8046875 70.5390625 C-73.3444406 66.75434379 -75.80862794 62.77361112 -78.0625 58.125 C-78.68125 56.87976563 -78.68125 56.87976563 -79.3125 55.609375 C-83.93982823 44.87654425 -83.50775408 32.67254373 -79.3203125 21.8671875 C-73.09600684 8.29742797 -63.80865758 -1.06900077 -50.1015625 -7.19921875 C-32.62441984 -13.47250044 -15.09459385 -10.40580993 0 0 Z " fill="#884E83" transform="translate(492.0625,226.875)"/>
<path d="M0 0 C11.0446875 -0.0928125 11.0446875 -0.0928125 22.3125 -0.1875 C24.61387939 -0.21481201 26.91525879 -0.24212402 29.28637695 -0.27026367 C31.14533974 -0.27903945 33.00430838 -0.28668079 34.86328125 -0.29296875 C36.26870178 -0.3159906 36.26870178 -0.3159906 37.70251465 -0.33947754 C47.41589424 -0.34325364 56.27824046 1.11384307 63.40625 8.125 C67.81683389 13.31392223 68.55618449 18.56103819 68.34765625 25.15234375 C67.61080213 31.18792416 65.75964538 36.8714956 61.0625 40.9375 C58.41666358 42.71938983 55.78461631 44.44389089 53 46 C54.60875 46.5878125 54.60875 46.5878125 56.25 47.1875 C60.75213385 49.12478184 63.02792158 51.87978699 65.0703125 56.33447266 C66.02774835 59.07955791 66.36613262 61.37962984 66.5625 64.2734375 C66.67464844 65.7584375 66.67464844 65.7584375 66.7890625 67.2734375 C66.89347656 68.80871094 66.89347656 68.80871094 67 70.375 C67.44318948 76.84228345 67.91671117 82.8369372 70 89 C67.03 89 64.06 89 61 89 C58.49798691 82.77598396 58.35033152 76.49410712 57.96484375 69.875 C57.52167577 64.07200791 56.74382258 58.65437785 53 54 C48.01725639 49.76863749 44.13270738 49.39931317 37.8828125 49.390625 C37.12218506 49.37499512 36.36155762 49.35936523 35.57788086 49.34326172 C32.7605669 49.29101121 29.94270897 49.27245552 27.125 49.25 C20.81375 49.1675 14.5025 49.085 8 49 C8 62.2 8 75.4 8 89 C5.36 89 2.72 89 0 89 C0 59.63 0 30.26 0 0 Z " fill="#5B366A" transform="translate(632,499)"/>
<path d="M0 0 C11.0446875 -0.0928125 11.0446875 -0.0928125 22.3125 -0.1875 C24.61387939 -0.21481201 26.91525879 -0.24212402 29.28637695 -0.27026367 C31.14533974 -0.27903945 33.00430838 -0.28668079 34.86328125 -0.29296875 C36.26870178 -0.3159906 36.26870178 -0.3159906 37.70251465 -0.33947754 C47.4184316 -0.34325462 56.2707946 1.11723486 63.40625 8.12109375 C67.57824653 13.03955044 68.56775058 18.04069007 68.34765625 24.30859375 C67.55547269 30.44134062 65.89441021 36.84230982 61.0625 41 C58.40625315 42.73469182 55.76963171 44.45226463 53 46 C54.60875 46.5878125 54.60875 46.5878125 56.25 47.1875 C60.75213385 49.12478184 63.02792158 51.87978699 65.0703125 56.33447266 C66.02774835 59.07955791 66.36613262 61.37962984 66.5625 64.2734375 C66.67464844 65.7584375 66.67464844 65.7584375 66.7890625 67.2734375 C66.89347656 68.80871094 66.89347656 68.80871094 67 70.375 C67.44318948 76.84228345 67.91671117 82.8369372 70 89 C67.03 89 64.06 89 61 89 C58.49798691 82.77598396 58.35033152 76.49410712 57.96484375 69.875 C57.52167577 64.07200791 56.74382258 58.65437785 53 54 C48.01725639 49.76863749 44.13270738 49.39931317 37.8828125 49.390625 C37.12218506 49.37499512 36.36155762 49.35936523 35.57788086 49.34326172 C32.7605669 49.29101121 29.94270897 49.27245552 27.125 49.25 C20.81375 49.1675 14.5025 49.085 8 49 C8 62.2 8 75.4 8 89 C5.36 89 2.72 89 0 89 C0 59.63 0 30.26 0 0 Z " fill="#5C366A" transform="translate(878,499)"/>
<path d="M0 0 C4.29 0 8.58 0 13 0 C13.4218457 1.14025635 13.84369141 2.2805127 14.27832031 3.45532227 C16.26601628 8.82544473 18.25757032 14.1941323 20.25 19.5625 C20.6094873 20.5316333 20.96897461 21.5007666 21.33935547 22.49926758 C25.07863724 32.57330314 28.83027259 42.64081693 32.734375 52.65234375 C33.01645813 53.37595596 33.29854126 54.09956818 33.58917236 54.84510803 C34.89867549 58.19786762 36.21644252 61.54715069 37.54394531 64.89282227 C38.00381836 66.06256592 38.46369141 67.23230957 38.9375 68.4375 C39.33839844 69.44683594 39.73929688 70.45617187 40.15234375 71.49609375 C41 74 41 74 41 77 C41.66 77 42.32 77 43 77 C43.08378906 76.22197021 43.16757813 75.44394043 43.25390625 74.64233398 C44.25556789 69.75235036 46.07285282 65.34184896 47.9375 60.72265625 C48.33646484 59.72028427 48.73542969 58.71791229 49.14648438 57.68516541 C50.42539671 54.47534468 51.71243242 51.26885731 53 48.0625 C54.25202778 44.92902962 55.50236191 41.79488677 56.75268555 38.66073608 C57.58282244 36.5805396 58.41371192 34.50064328 59.24536133 32.42105103 C63.55528961 21.63684164 67.78339147 10.8209735 72 0 C76.29 0 80.58 0 85 0 C85 29.37 85 58.74 85 89 C82.36 89 79.72 89 77 89 C76.67 64.25 76.34 39.5 76 14 C67.99653021 34.19241524 67.99653021 34.19241524 59.99536133 54.38574219 C58.98266715 56.93948585 57.96989553 59.4931988 56.95703125 62.046875 C56.70120773 62.69311829 56.44538422 63.33936157 56.18180847 64.00518799 C52.8694676 72.37153555 49.49326898 80.70729107 46 89 C43.36 89 40.72 89 38 89 C34.50908474 80.75245617 31.20487797 72.44950977 28.0234375 64.078125 C27.57151031 62.89329529 27.11958313 61.70846558 26.65396118 60.48773193 C25.46688848 57.37446627 24.28142143 54.2605993 23.09674072 51.14642334 C22.13273048 48.61342019 21.16716514 46.08101126 20.20151329 43.54863358 C18.19573468 38.28856403 16.19120223 33.0280201 14.18896484 27.76660156 C13.83764496 26.84349182 13.48632507 25.92038208 13.12435913 24.96929932 C11.74102957 21.31608977 10.37160972 17.65762593 9 14 C8.67 38.75 8.34 63.5 8 89 C5.36 89 2.72 89 0 89 C0 59.63 0 30.26 0 0 Z " fill="#9F5F8E" transform="translate(1144,499)"/>
<path d="M0 0 C1.02802734 -0.01224609 2.05605469 -0.02449219 3.11523438 -0.03710938 C4.58766602 -0.04000977 4.58766602 -0.04000977 6.08984375 -0.04296875 C6.99468506 -0.04707764 7.89952637 -0.05118652 8.83178711 -0.05541992 C11.0625 0.1875 11.0625 0.1875 13.0625 2.1875 C13.64429782 5.01119938 14.10754581 7.77342397 14.5 10.625 C14.62415283 11.49229736 14.74830566 12.35959473 14.8762207 13.25317383 C15.94853673 20.94628499 16.86768759 28.65806651 17.75 36.375 C17.88140381 37.50800537 18.01280762 38.64101074 18.14819336 39.80834961 C18.49263342 42.93236779 18.7850047 46.05693222 19.0625 49.1875 C19.16232178 49.97495605 19.26214355 50.76241211 19.36499023 51.57373047 C19.94074163 58.78475427 16.39023552 63.94136284 12.75 69.9375 C11.85764648 71.45923828 11.85764648 71.45923828 10.94726562 73.01171875 C9.33773747 75.74881579 7.70578266 78.47057811 6.0625 81.1875 C5.30610229 82.56083496 5.30610229 82.56083496 4.53442383 83.96191406 C3.0625 86.1875 3.0625 86.1875 0.375 87 C-0.388125 87.061875 -1.15125 87.12375 -1.9375 87.1875 C-2.41058594 86.3625 -2.88367188 85.5375 -3.37109375 84.6875 C-3.6863501 84.13827881 -4.00160645 83.58905762 -4.32641602 83.02319336 C-5.03561002 81.78164978 -5.74041274 80.53758914 -6.44116211 79.29125977 C-8.38054815 75.85173034 -10.37343445 72.47490732 -12.5078125 69.15234375 C-12.92361572 68.48009766 -13.33941895 67.80785156 -13.76782227 67.11523438 C-14.56302924 65.83080259 -15.38245944 64.56091217 -16.23022461 63.31054688 C-20.01701884 57.05575894 -18.89570791 51.1494306 -17.9375 44.1875 C-17.72196439 42.50197044 -17.50725973 40.8163345 -17.29321289 39.13061523 C-16.67826776 34.37916925 -16.02340394 29.6341207 -15.35351562 24.89013672 C-14.93261742 21.90284626 -14.52065852 18.914409 -14.109375 15.92578125 C-13.84427815 14.02857196 -13.57867244 12.13143369 -13.3125 10.234375 C-13.18955566 9.33974548 -13.06661133 8.44511597 -12.93994141 7.52337646 C-11.61251419 -1.78120174 -8.56423407 0.0053493 0 0 Z " fill="#014D84" transform="translate(285.9375,332.8125)"/>
<path d="M0 0 C3.3 0 6.6 0 10 0 C12.68812692 2.76225991 14.23795163 4.81144385 16.125 8.0625 C17.22947368 9.81525171 18.33635334 11.56648904 19.4453125 13.31640625 C20.30624512 14.70883545 20.30624512 14.70883545 21.18457031 16.12939453 C24.28779972 21.036303 27.65638829 25.75519491 31 30.5 C36.50975623 38.39470392 41.97858903 46.31613064 47.40039062 54.27148438 C51.90023107 60.8716574 56.45247542 67.43135339 61 74 C61.33 49.58 61.66 25.16 62 0 C64.64 0 67.28 0 70 0 C70 29.37 70 58.74 70 89 C66.7 89 63.4 89 60 89 C57.31187308 86.23774009 55.76204837 84.18855615 53.875 80.9375 C52.77052632 79.18474829 51.66364666 77.43351096 50.5546875 75.68359375 C49.98073242 74.75530762 49.40677734 73.82702148 48.81542969 72.87060547 C45.71220028 67.963697 42.34361171 63.24480509 39 58.5 C33.49024377 50.60529608 28.02141097 42.68386936 22.59960938 34.72851562 C18.09976893 28.1283426 13.54752458 21.56864661 9 15 C8.67 39.42 8.34 63.84 8 89 C5.36 89 2.72 89 0 89 C0 59.63 0 30.26 0 0 Z " fill="#9F5F8D" transform="translate(1320,499)"/>
<path d="M0 0 C2.38835188 2.38835188 2.79762538 4.06409708 3.76953125 7.28515625 C4.09816162 8.36385986 4.42679199 9.44256348 4.76538086 10.55395508 C5.11093018 11.7117749 5.45647949 12.86959473 5.8125 14.0625 C6.3530603 15.84660278 6.3530603 15.84660278 6.90454102 17.66674805 C8.96979415 24.50039485 10.99929901 31.34428603 12.984375 38.20166016 C14.3708149 42.95599363 15.82838382 47.6869626 17.3046875 52.4140625 C17.50983475 53.07147934 17.71498199 53.72889618 17.92634583 54.40623474 C18.96479606 57.73156648 20.00714083 61.0556197 21.05444336 64.37817383 C21.62497437 66.19998169 21.62497437 66.19998169 22.20703125 68.05859375 C22.5522583 69.15486084 22.89748535 70.25112793 23.25317383 71.38061523 C24 74 24 74 24 76 C7.5 76 -9 76 -26 76 C-19.73791569 56.53472587 -13.41901934 37.10073829 -6.8125 17.75 C-6.52710358 16.9109613 -6.24170715 16.07192261 -5.94766235 15.2074585 C-5.14166157 12.84025878 -4.33143629 10.47455523 -3.51953125 8.109375 C-3.278396 7.40070282 -3.03726074 6.69203064 -2.78881836 5.96188354 C-1.11535403 1.11535403 -1.11535403 1.11535403 0 0 Z " fill="#FAFBFC" transform="translate(1814,268)"/>
<path d="M0 0 C20.46 0 40.92 0 62 0 C62 2.31 62 4.62 62 7 C44.18 7 26.36 7 8 7 C8 17.56 8 28.12 8 39 C24.5 39 41 39 58 39 C58 41.31 58 43.62 58 46 C41.5 46 25 46 8 46 C8 57.88 8 69.76 8 82 C25.82 82 43.64 82 62 82 C62 84.31 62 86.62 62 89 C41.54 89 21.08 89 0 89 C0 59.63 0 30.26 0 0 Z " fill="#9F5E8D" transform="translate(1246,499)"/>
<path d="M0 0 C20.46 0 40.92 0 62 0 C62 2.31 62 4.62 62 7 C44.18 7 26.36 7 8 7 C8 17.56 8 28.12 8 39 C24.5 39 41 39 58 39 C58 41.31 58 43.62 58 46 C41.5 46 25 46 8 46 C8 57.88 8 69.76 8 82 C25.82 82 43.64 82 62 82 C62 84.31 62 86.62 62 89 C41.54 89 21.08 89 0 89 C0 59.63 0 30.26 0 0 Z " fill="#5A3469" transform="translate(715,499)"/>
<path d="M0 0 C6.86207943 5.05039119 11.54914579 11.05272278 14.125 19.25 C14.125 20.57 14.125 21.89 14.125 23.25 C11.155 23.25 8.185 23.25 5.125 23.25 C4.77888672 22.25419922 4.77888672 22.25419922 4.42578125 21.23828125 C1.43540233 13.14180077 -2.31406105 8.63534459 -9.875 4.25 C-17.50118207 1.13727262 -26.99893054 0.70775705 -34.6875 3.8125 C-44.72164209 9.07812319 -50.27326965 16.72133678 -53.6875 27.375 C-56.87428378 40.48843211 -55.29110895 53.85197368 -48.625 65.625 C-44.09084975 72.18357208 -37.87579534 77.78819074 -29.875 79.25 C-19.35851608 80.24564345 -12.48882689 78.77240118 -3.6875 73.25 C1.45353376 68.6259417 5.0171516 60.78303826 6 54 C6.04125 53.0925 6.0825 52.185 6.125 51.25 C9.095 51.25 12.065 51.25 15.125 51.25 C14.95470506 61.1271066 10.5250887 71.02591322 3.8125 78.3125 C-2.01256984 83.48306761 -9.07832345 86.86016617 -16.875 87.25 C-18.43734375 87.3428125 -18.43734375 87.3428125 -20.03125 87.4375 C-31.78849595 87.84644769 -41.12530234 85.29527284 -49.875 77.25 C-60.36409133 66.8898729 -64.13047693 54.78141852 -64.25 40.1875 C-64.18524488 33.1692094 -63.47259389 26.83337561 -60.875 20.25 C-60.54628906 19.40179687 -60.21757813 18.55359375 -59.87890625 17.6796875 C-54.85449907 6.30957575 -46.2011246 -0.16054285 -34.875 -4.75 C-23.93347388 -8.34601259 -9.63860991 -6.018097 0 0 Z " fill="#5F3A6D" transform="translate(849.875,502.75)"/>
<path d="M0 0 C2.97 0 5.94 0 9 0 C9.00142502 0.80464691 9.00285004 1.60929382 9.00431824 2.43832397 C9.02222173 10.05849532 9.06405078 17.67799713 9.13209057 25.29787254 C9.16623665 29.21444582 9.19145105 33.13063417 9.19555664 37.04736328 C9.1998665 40.83435982 9.22854798 44.6204899 9.27343178 48.40721512 C9.28632178 49.84468138 9.29074489 51.2822518 9.28615379 52.71976852 C9.26316643 62.11141879 9.9822545 70.29793685 16.44230652 77.63900757 C22.88313663 83.50174115 30.77853501 83.59732659 39 83.3828125 C45.6425699 82.94728551 50.55211043 80.19682398 55.4375 75.8125 C60.29247622 67.07354281 60.4667853 58.03117797 60.51171875 48.2421875 C60.52860065 46.84398865 60.5467555 45.44580466 60.56611633 44.04763794 C60.61324235 40.40145513 60.64329167 36.75533253 60.66955566 33.10894775 C60.69955211 29.37459422 60.74601583 25.64044754 60.79101562 21.90625 C60.87662201 14.60427018 60.94415462 7.3022746 61 0 C63.64 0 66.28 0 69 0 C69.06982278 8.30220797 69.12297378 16.60429116 69.15543652 24.90672112 C69.17102498 28.76279014 69.19213675 32.61865678 69.22631836 36.47460938 C69.25915757 40.20289191 69.27690416 43.93098101 69.28463173 47.65939713 C69.29013155 49.07461716 69.30087012 50.48982783 69.31719017 51.90496445 C69.4384174 62.8626796 68.88192372 72.4916749 61.73046875 81.25 C58.82553987 84.18771588 55.66809497 86.1413108 52 88 C50.865625 88.598125 49.73125 89.19625 48.5625 89.8125 C39.92759059 92.80479534 27.68578408 92.13840903 19.140625 89.04296875 C9.88441053 84.53309783 4.21423264 77.86804698 0.8380127 68.27841187 C-0.72717422 62.15520229 -0.48752332 55.9844596 -0.390625 49.70703125 C-0.38314559 48.26544488 -0.37746072 46.82384819 -0.37347412 45.38224792 C-0.35835102 41.62558907 -0.31918872 37.86956914 -0.2746582 34.11315918 C-0.23341386 30.26498045 -0.21540149 26.4166964 -0.1953125 22.56835938 C-0.15267773 15.04528464 -0.08459352 7.52273253 0 0 Z " fill="#6B4274" transform="translate(960,499)"/>
<path d="M0 0 C5.24788736 -0.09229308 10.4929117 -0.17178598 15.7409668 -0.21972656 C17.52263986 -0.23972905 19.30424823 -0.26694023 21.08569336 -0.30175781 C41.930363 -0.69868795 41.930363 -0.69868795 49.5625 6.375 C52.04230755 12.62842774 52.43291844 19.90102657 50.1875 26.32421875 C47.12714623 31.22291002 42.45810908 33.57524606 37 35 C30.67537175 35.65122547 24.28334036 35.3775304 17.9375 35.25 C16.19598406 35.22990621 14.45444576 35.21166053 12.71289062 35.1953125 C8.47425086 35.15496372 4.23875435 35.07664247 0 35 C0 23.45 0 11.9 0 0 Z " fill="#FCFBFC" transform="translate(886,506)"/>
<path d="M0 0 C5.24788736 -0.09229308 10.4929117 -0.17178598 15.7409668 -0.21972656 C17.52263986 -0.23972905 19.30424823 -0.26694023 21.08569336 -0.30175781 C41.930363 -0.69868795 41.930363 -0.69868795 49.5625 6.375 C52.04230755 12.62842774 52.43291844 19.90102657 50.1875 26.32421875 C47.12714623 31.22291002 42.45810908 33.57524606 37 35 C30.67537175 35.65122547 24.28334036 35.3775304 17.9375 35.25 C16.19598406 35.22990621 14.45444576 35.21166053 12.71289062 35.1953125 C8.47425086 35.15496372 4.23875435 35.07664247 0 35 C0 23.45 0 11.9 0 0 Z " fill="#FCFBFC" transform="translate(640,506)"/>
<path d="M0 0 C23.1 0 46.2 0 70 0 C70 2.31 70 4.62 70 7 C59.77 7 49.54 7 39 7 C39 34.06 39 61.12 39 89 C36.36 89 33.72 89 31 89 C31 61.94 31 34.88 31 7 C20.77 7 10.54 7 0 7 C0 4.69 0 2.38 0 0 Z " fill="#9F5E8D" transform="translate(1399,499)"/>
<path d="M0 0 C23.1 0 46.2 0 70 0 C70 2.31 70 4.62 70 7 C59.77 7 49.54 7 39 7 C39 34.06 39 61.12 39 89 C36.36 89 33.72 89 31 89 C31 61.94 31 34.88 31 7 C20.77 7 10.54 7 0 7 C0 4.69 0 2.38 0 0 Z " fill="#945787" transform="translate(1065,499)"/>
<path d="M0 0 C2.64 0 5.28 0 8 0 C8 29.37 8 58.74 8 89 C5.36 89 2.72 89 0 89 C0 59.63 0 30.26 0 0 Z " fill="#7C487B" transform="translate(1047,499)"/>
</svg>
